<mxfile host="app.diagrams.net" agent="Mozilla/5.0 (Windows NT 10.0; Win64; x64) AppleWebKit/537.36 (KHTML, like Gecko) Chrome/131.0.0.0 Safari/537.36" version="25.0.3">
  <diagram name="Page-1" id="K8DmAfVVys3FTuZRNBVd">
    <mxGraphModel dx="1595" dy="663" grid="0" gridSize="10" guides="1" tooltips="1" connect="1" arrows="1" fold="1" page="0" pageScale="1" pageWidth="827" pageHeight="1169" math="0" shadow="0">
      <root>
        <mxCell id="0" />
        <mxCell id="1" parent="0" />
        <mxCell id="SjhJ4Wz7nsTAdoAOadyB-1" value="uc CartodexTCG" style="shape=umlFrame;whiteSpace=wrap;html=1;pointerEvents=0;recursiveResize=0;container=1;collapsible=0;width=107;height=15;" vertex="1" parent="1">
          <mxGeometry x="-178" y="231" width="713" height="509" as="geometry" />
        </mxCell>
        <mxCell id="SjhJ4Wz7nsTAdoAOadyB-3" value="Choisir le TCG" style="ellipse;whiteSpace=wrap;html=1;" vertex="1" parent="SjhJ4Wz7nsTAdoAOadyB-1">
          <mxGeometry x="27" y="37" width="88" height="44" as="geometry" />
        </mxCell>
        <mxCell id="SjhJ4Wz7nsTAdoAOadyB-4" value="Choisir la série" style="ellipse;whiteSpace=wrap;html=1;" vertex="1" parent="SjhJ4Wz7nsTAdoAOadyB-1">
          <mxGeometry x="115" y="87" width="88" height="44" as="geometry" />
        </mxCell>
        <mxCell id="SjhJ4Wz7nsTAdoAOadyB-5" value="Créer un classeur virtuelle" style="ellipse;whiteSpace=wrap;html=1;" vertex="1" parent="SjhJ4Wz7nsTAdoAOadyB-1">
          <mxGeometry x="100" y="146" width="114" height="57" as="geometry" />
        </mxCell>
        <mxCell id="SjhJ4Wz7nsTAdoAOadyB-6" value="Créer un classeur virtuelle" style="ellipse;whiteSpace=wrap;html=1;" vertex="1" parent="SjhJ4Wz7nsTAdoAOadyB-1">
          <mxGeometry x="103" y="212" width="108" height="54" as="geometry" />
        </mxCell>
        <mxCell id="SjhJ4Wz7nsTAdoAOadyB-7" value="Sélectionner une carte" style="ellipse;whiteSpace=wrap;html=1;" vertex="1" parent="SjhJ4Wz7nsTAdoAOadyB-1">
          <mxGeometry x="102" y="281" width="106" height="53" as="geometry" />
        </mxCell>
        <mxCell id="SjhJ4Wz7nsTAdoAOadyB-10" style="edgeStyle=none;curved=1;rounded=0;orthogonalLoop=1;jettySize=auto;html=1;fontSize=12;startSize=8;endSize=8;dashed=1;entryX=1;entryY=0.5;entryDx=0;entryDy=0;endArrow=open;endFill=0;" edge="1" parent="SjhJ4Wz7nsTAdoAOadyB-1" source="SjhJ4Wz7nsTAdoAOadyB-9" target="SjhJ4Wz7nsTAdoAOadyB-8">
          <mxGeometry relative="1" as="geometry">
            <mxPoint x="205" y="377" as="targetPoint" />
          </mxGeometry>
        </mxCell>
        <mxCell id="SjhJ4Wz7nsTAdoAOadyB-16" value="&amp;lt;&amp;lt;include&amp;gt;&amp;gt;" style="edgeLabel;html=1;align=center;verticalAlign=middle;resizable=0;points=[];fontSize=12;" vertex="1" connectable="0" parent="SjhJ4Wz7nsTAdoAOadyB-10">
          <mxGeometry x="-0.2761" relative="1" as="geometry">
            <mxPoint as="offset" />
          </mxGeometry>
        </mxCell>
        <mxCell id="SjhJ4Wz7nsTAdoAOadyB-8" value="Ajouter une carte au classeur" style="ellipse;whiteSpace=wrap;html=1;" vertex="1" parent="SjhJ4Wz7nsTAdoAOadyB-1">
          <mxGeometry x="104" y="349" width="110" height="55" as="geometry" />
        </mxCell>
        <mxCell id="SjhJ4Wz7nsTAdoAOadyB-9" value="Mettre a jour les cartes manquante et obtenu" style="ellipse;whiteSpace=wrap;html=1;" vertex="1" parent="SjhJ4Wz7nsTAdoAOadyB-1">
          <mxGeometry x="339" y="349" width="110" height="55" as="geometry" />
        </mxCell>
        <mxCell id="SjhJ4Wz7nsTAdoAOadyB-11" style="edgeStyle=none;curved=1;rounded=0;orthogonalLoop=1;jettySize=auto;html=1;fontSize=12;startSize=8;endSize=8;endArrow=none;endFill=0;" edge="1" parent="1" source="SjhJ4Wz7nsTAdoAOadyB-2" target="SjhJ4Wz7nsTAdoAOadyB-3">
          <mxGeometry relative="1" as="geometry" />
        </mxCell>
        <mxCell id="SjhJ4Wz7nsTAdoAOadyB-2" value="User" style="shape=umlActor;verticalLabelPosition=bottom;verticalAlign=top;html=1;" vertex="1" parent="1">
          <mxGeometry x="-272" y="438" width="30" height="60" as="geometry" />
        </mxCell>
        <mxCell id="SjhJ4Wz7nsTAdoAOadyB-12" style="edgeStyle=none;curved=1;rounded=0;orthogonalLoop=1;jettySize=auto;html=1;fontSize=12;startSize=8;endSize=8;endArrow=none;endFill=0;" edge="1" parent="1" source="SjhJ4Wz7nsTAdoAOadyB-2" target="SjhJ4Wz7nsTAdoAOadyB-5">
          <mxGeometry relative="1" as="geometry">
            <mxPoint x="-390" y="727" as="sourcePoint" />
            <mxPoint x="-272" y="587" as="targetPoint" />
          </mxGeometry>
        </mxCell>
        <mxCell id="SjhJ4Wz7nsTAdoAOadyB-13" style="edgeStyle=none;curved=1;rounded=0;orthogonalLoop=1;jettySize=auto;html=1;fontSize=12;startSize=8;endSize=8;endArrow=none;endFill=0;exitX=0.622;exitY=0.608;exitDx=0;exitDy=0;exitPerimeter=0;" edge="1" parent="1" source="SjhJ4Wz7nsTAdoAOadyB-2" target="SjhJ4Wz7nsTAdoAOadyB-6">
          <mxGeometry relative="1" as="geometry">
            <mxPoint x="-409" y="667" as="sourcePoint" />
            <mxPoint x="-238" y="622" as="targetPoint" />
          </mxGeometry>
        </mxCell>
        <mxCell id="SjhJ4Wz7nsTAdoAOadyB-14" style="edgeStyle=none;curved=1;rounded=0;orthogonalLoop=1;jettySize=auto;html=1;fontSize=12;startSize=8;endSize=8;endArrow=none;endFill=0;exitX=0.65;exitY=0.789;exitDx=0;exitDy=0;exitPerimeter=0;" edge="1" parent="1" source="SjhJ4Wz7nsTAdoAOadyB-2" target="SjhJ4Wz7nsTAdoAOadyB-7">
          <mxGeometry relative="1" as="geometry">
            <mxPoint x="-253" y="506" as="sourcePoint" />
            <mxPoint x="-75" y="503" as="targetPoint" />
          </mxGeometry>
        </mxCell>
        <mxCell id="SjhJ4Wz7nsTAdoAOadyB-15" style="edgeStyle=none;curved=1;rounded=0;orthogonalLoop=1;jettySize=auto;html=1;fontSize=12;startSize=8;endSize=8;endArrow=none;endFill=0;exitX=0.511;exitY=0.733;exitDx=0;exitDy=0;exitPerimeter=0;" edge="1" parent="1" source="SjhJ4Wz7nsTAdoAOadyB-2" target="SjhJ4Wz7nsTAdoAOadyB-8">
          <mxGeometry relative="1" as="geometry">
            <mxPoint x="-283" y="613" as="sourcePoint" />
            <mxPoint x="-102" y="655" as="targetPoint" />
          </mxGeometry>
        </mxCell>
      </root>
    </mxGraphModel>
  </diagram>
</mxfile>
